<svg width="32" height="32" viewBox="0 0 32 32" xmlns="http://www.w3.org/2000/svg">
  <rect width="32" height="32" rx="6" fill="#5b9a2f"/>
  <svg x="2" y="4" width="28" height="24" viewBox="0 0 660 297">
    <path d="M4494 1625 c-214 -33 -406 -126 -609 -295 -44 -37 -305 -292 -580 -567 -526 -525 -575 -567 -752 -656 -64 -33 -187 -71 -252 -79 -14 -2 -26 -9 -29 -15 -3 -10 435 -13 2167 -13 l2171 0 0 80 0 80 -102 108 c-304 318 -1097 1112 -1111 1112 -9 0 -33 12 -54 26 -21 14 -92 52 -158 84 -268 130 -471 170 -691 135z" transform="translate(0 297) scale(0.1 -0.1)" fill="white"/>
  </svg>
</svg>
